<mxfile host="app.diagrams.net" agent="Mozilla/5.0 (Windows NT 10.0; Win64; x64) AppleWebKit/537.36 (KHTML, like Gecko) Chrome/138.0.0.0 Safari/537.36" version="27.1.5">
  <diagram name="Página-1" id="BCoaVF3dLPMqc6CU4Q22">
    <mxGraphModel dx="1639" dy="891" grid="1" gridSize="10" guides="1" tooltips="1" connect="1" arrows="1" fold="1" page="1" pageScale="1" pageWidth="827" pageHeight="1169" math="0" shadow="0">
      <root>
        <mxCell id="0" />
        <mxCell id="1" parent="0" />
        <mxCell id="Kyq0_2vOsfh6rxv-Myn7-49" value="" style="rounded=0;whiteSpace=wrap;html=1;" vertex="1" parent="1">
          <mxGeometry x="190" y="10" width="490" height="610" as="geometry" />
        </mxCell>
        <mxCell id="Kyq0_2vOsfh6rxv-Myn7-25" style="rounded=0;orthogonalLoop=1;jettySize=auto;html=1;exitX=1;exitY=0.3333333333333333;exitDx=0;exitDy=0;exitPerimeter=0;entryX=0;entryY=0.5;entryDx=0;entryDy=0;endArrow=none;startFill=0;" edge="1" parent="1" source="Kyq0_2vOsfh6rxv-Myn7-1" target="Kyq0_2vOsfh6rxv-Myn7-2">
          <mxGeometry relative="1" as="geometry" />
        </mxCell>
        <mxCell id="Kyq0_2vOsfh6rxv-Myn7-26" style="rounded=0;orthogonalLoop=1;jettySize=auto;html=1;exitX=1;exitY=0.3333333333333333;exitDx=0;exitDy=0;exitPerimeter=0;entryX=0;entryY=0.5;entryDx=0;entryDy=0;endArrow=none;startFill=0;" edge="1" parent="1" source="Kyq0_2vOsfh6rxv-Myn7-1" target="Kyq0_2vOsfh6rxv-Myn7-3">
          <mxGeometry relative="1" as="geometry" />
        </mxCell>
        <mxCell id="Kyq0_2vOsfh6rxv-Myn7-33" style="rounded=0;orthogonalLoop=1;jettySize=auto;html=1;exitX=1;exitY=0.3333333333333333;exitDx=0;exitDy=0;exitPerimeter=0;entryX=0;entryY=0.5;entryDx=0;entryDy=0;endArrow=none;startFill=0;" edge="1" parent="1" source="Kyq0_2vOsfh6rxv-Myn7-1" target="Kyq0_2vOsfh6rxv-Myn7-5">
          <mxGeometry relative="1" as="geometry" />
        </mxCell>
        <mxCell id="Kyq0_2vOsfh6rxv-Myn7-34" style="rounded=0;orthogonalLoop=1;jettySize=auto;html=1;exitX=1;exitY=0.3333333333333333;exitDx=0;exitDy=0;exitPerimeter=0;entryX=0;entryY=0.5;entryDx=0;entryDy=0;endArrow=none;startFill=0;" edge="1" parent="1" source="Kyq0_2vOsfh6rxv-Myn7-1" target="Kyq0_2vOsfh6rxv-Myn7-9">
          <mxGeometry relative="1" as="geometry" />
        </mxCell>
        <mxCell id="Kyq0_2vOsfh6rxv-Myn7-42" style="rounded=0;orthogonalLoop=1;jettySize=auto;html=1;exitX=1;exitY=0.3333333333333333;exitDx=0;exitDy=0;exitPerimeter=0;entryX=0;entryY=0.5;entryDx=0;entryDy=0;endArrow=none;startFill=0;" edge="1" parent="1" source="Kyq0_2vOsfh6rxv-Myn7-1" target="Kyq0_2vOsfh6rxv-Myn7-12">
          <mxGeometry relative="1" as="geometry" />
        </mxCell>
        <mxCell id="Kyq0_2vOsfh6rxv-Myn7-43" style="rounded=0;orthogonalLoop=1;jettySize=auto;html=1;exitX=1;exitY=0.3333333333333333;exitDx=0;exitDy=0;exitPerimeter=0;entryX=0;entryY=0.5;entryDx=0;entryDy=0;endArrow=none;startFill=0;" edge="1" parent="1" source="Kyq0_2vOsfh6rxv-Myn7-1" target="Kyq0_2vOsfh6rxv-Myn7-13">
          <mxGeometry relative="1" as="geometry" />
        </mxCell>
        <mxCell id="Kyq0_2vOsfh6rxv-Myn7-44" style="rounded=0;orthogonalLoop=1;jettySize=auto;html=1;exitX=1;exitY=0.3333333333333333;exitDx=0;exitDy=0;exitPerimeter=0;entryX=0;entryY=0.5;entryDx=0;entryDy=0;endArrow=none;startFill=0;" edge="1" parent="1" source="Kyq0_2vOsfh6rxv-Myn7-1" target="Kyq0_2vOsfh6rxv-Myn7-15">
          <mxGeometry relative="1" as="geometry" />
        </mxCell>
        <mxCell id="Kyq0_2vOsfh6rxv-Myn7-48" style="rounded=0;orthogonalLoop=1;jettySize=auto;html=1;exitX=1;exitY=0.3333333333333333;exitDx=0;exitDy=0;exitPerimeter=0;entryX=0;entryY=0.5;entryDx=0;entryDy=0;endArrow=none;startFill=0;" edge="1" parent="1" source="Kyq0_2vOsfh6rxv-Myn7-1" target="Kyq0_2vOsfh6rxv-Myn7-11">
          <mxGeometry relative="1" as="geometry" />
        </mxCell>
        <mxCell id="Kyq0_2vOsfh6rxv-Myn7-1" value="Usuário" style="shape=umlActor;verticalLabelPosition=bottom;verticalAlign=top;html=1;outlineConnect=0;" vertex="1" parent="1">
          <mxGeometry x="120" y="280" width="30" height="60" as="geometry" />
        </mxCell>
        <mxCell id="Kyq0_2vOsfh6rxv-Myn7-2" value="inserir nome" style="ellipse;whiteSpace=wrap;html=1;" vertex="1" parent="1">
          <mxGeometry x="290" y="40" width="70" height="30" as="geometry" />
        </mxCell>
        <mxCell id="Kyq0_2vOsfh6rxv-Myn7-3" value="inserir imagem" style="ellipse;whiteSpace=wrap;html=1;" vertex="1" parent="1">
          <mxGeometry x="290" y="80" width="70" height="30" as="geometry" />
        </mxCell>
        <mxCell id="Kyq0_2vOsfh6rxv-Myn7-21" style="rounded=0;orthogonalLoop=1;jettySize=auto;html=1;exitX=0;exitY=0.5;exitDx=0;exitDy=0;entryX=1;entryY=0.5;entryDx=0;entryDy=0;dashed=1;" edge="1" parent="1" source="Kyq0_2vOsfh6rxv-Myn7-4" target="Kyq0_2vOsfh6rxv-Myn7-3">
          <mxGeometry relative="1" as="geometry" />
        </mxCell>
        <mxCell id="Kyq0_2vOsfh6rxv-Myn7-4" value="editar perfil" style="ellipse;whiteSpace=wrap;html=1;" vertex="1" parent="1">
          <mxGeometry x="480" y="80" width="70" height="30" as="geometry" />
        </mxCell>
        <mxCell id="Kyq0_2vOsfh6rxv-Myn7-31" style="rounded=0;orthogonalLoop=1;jettySize=auto;html=1;exitX=1;exitY=0.5;exitDx=0;exitDy=0;entryX=0;entryY=0.5;entryDx=0;entryDy=0;startArrow=none;startFill=0;dashed=1;" edge="1" parent="1" source="Kyq0_2vOsfh6rxv-Myn7-5" target="Kyq0_2vOsfh6rxv-Myn7-8">
          <mxGeometry relative="1" as="geometry" />
        </mxCell>
        <mxCell id="Kyq0_2vOsfh6rxv-Myn7-32" value="&lt;font style=&quot;font-size: 8px;&quot;&gt;&amp;lt;&amp;lt;inclusão&amp;gt;&amp;gt;&lt;/font&gt;" style="edgeLabel;html=1;align=center;verticalAlign=middle;resizable=0;points=[];" vertex="1" connectable="0" parent="Kyq0_2vOsfh6rxv-Myn7-31">
          <mxGeometry x="-0.0979" y="1" relative="1" as="geometry">
            <mxPoint as="offset" />
          </mxGeometry>
        </mxCell>
        <mxCell id="Kyq0_2vOsfh6rxv-Myn7-45" style="rounded=0;orthogonalLoop=1;jettySize=auto;html=1;exitX=1;exitY=0.5;exitDx=0;exitDy=0;entryX=0;entryY=0.5;entryDx=0;entryDy=0;dashed=1;startArrow=none;startFill=0;endArrow=classic;endFill=1;" edge="1" parent="1" source="Kyq0_2vOsfh6rxv-Myn7-5" target="Kyq0_2vOsfh6rxv-Myn7-16">
          <mxGeometry relative="1" as="geometry" />
        </mxCell>
        <mxCell id="Kyq0_2vOsfh6rxv-Myn7-47" value="&lt;font style=&quot;font-size: 8px;&quot;&gt;&amp;lt;&amp;lt;inclusão&amp;gt;&amp;gt;&lt;/font&gt;" style="edgeLabel;html=1;align=center;verticalAlign=middle;resizable=0;points=[];" vertex="1" connectable="0" parent="Kyq0_2vOsfh6rxv-Myn7-45">
          <mxGeometry x="0.044" relative="1" as="geometry">
            <mxPoint as="offset" />
          </mxGeometry>
        </mxCell>
        <mxCell id="Kyq0_2vOsfh6rxv-Myn7-5" value="criar hábito" style="ellipse;whiteSpace=wrap;html=1;" vertex="1" parent="1">
          <mxGeometry x="290" y="130" width="70" height="30" as="geometry" />
        </mxCell>
        <mxCell id="Kyq0_2vOsfh6rxv-Myn7-27" style="rounded=0;orthogonalLoop=1;jettySize=auto;html=1;exitX=0;exitY=0.5;exitDx=0;exitDy=0;entryX=1;entryY=0.5;entryDx=0;entryDy=0;dashed=1;" edge="1" parent="1" source="Kyq0_2vOsfh6rxv-Myn7-6" target="Kyq0_2vOsfh6rxv-Myn7-5">
          <mxGeometry relative="1" as="geometry">
            <mxPoint x="360" y="185" as="targetPoint" />
          </mxGeometry>
        </mxCell>
        <mxCell id="Kyq0_2vOsfh6rxv-Myn7-28" value="&lt;font style=&quot;font-size: 8px;&quot;&gt;&amp;lt;&amp;lt;extensão&amp;gt;&amp;gt;&lt;/font&gt;" style="edgeLabel;html=1;align=center;verticalAlign=middle;resizable=0;points=[];" vertex="1" connectable="0" parent="Kyq0_2vOsfh6rxv-Myn7-27">
          <mxGeometry x="0.0047" relative="1" as="geometry">
            <mxPoint as="offset" />
          </mxGeometry>
        </mxCell>
        <mxCell id="Kyq0_2vOsfh6rxv-Myn7-6" value="editar hábito" style="ellipse;whiteSpace=wrap;html=1;" vertex="1" parent="1">
          <mxGeometry x="567.91" y="160" width="70" height="30" as="geometry" />
        </mxCell>
        <mxCell id="Kyq0_2vOsfh6rxv-Myn7-7" value="descrever hábito" style="ellipse;whiteSpace=wrap;html=1;" vertex="1" parent="1">
          <mxGeometry x="567.91" y="200" width="70" height="30" as="geometry" />
        </mxCell>
        <mxCell id="Kyq0_2vOsfh6rxv-Myn7-8" value="nomear hábito" style="ellipse;whiteSpace=wrap;html=1;" vertex="1" parent="1">
          <mxGeometry x="567.91" y="120" width="70" height="30" as="geometry" />
        </mxCell>
        <mxCell id="Kyq0_2vOsfh6rxv-Myn7-9" value="registrar hábito" style="ellipse;whiteSpace=wrap;html=1;" vertex="1" parent="1">
          <mxGeometry x="290" y="280" width="70" height="30" as="geometry" />
        </mxCell>
        <mxCell id="Kyq0_2vOsfh6rxv-Myn7-40" style="rounded=0;orthogonalLoop=1;jettySize=auto;html=1;exitX=1;exitY=0.5;exitDx=0;exitDy=0;entryX=0;entryY=0.5;entryDx=0;entryDy=0;dashed=1;" edge="1" parent="1" source="Kyq0_2vOsfh6rxv-Myn7-10" target="Kyq0_2vOsfh6rxv-Myn7-14">
          <mxGeometry relative="1" as="geometry" />
        </mxCell>
        <mxCell id="Kyq0_2vOsfh6rxv-Myn7-41" value="&amp;lt;&amp;lt;inclusão&amp;gt;&amp;gt;" style="edgeLabel;html=1;align=center;verticalAlign=middle;resizable=0;points=[];" vertex="1" connectable="0" parent="Kyq0_2vOsfh6rxv-Myn7-40">
          <mxGeometry x="-0.0922" relative="1" as="geometry">
            <mxPoint as="offset" />
          </mxGeometry>
        </mxCell>
        <mxCell id="Kyq0_2vOsfh6rxv-Myn7-10" value="&lt;font style=&quot;font-size: 10px;&quot;&gt;visualizar calendário&lt;/font&gt;" style="ellipse;whiteSpace=wrap;html=1;" vertex="1" parent="1">
          <mxGeometry x="285.34" y="390" width="70" height="30" as="geometry" />
        </mxCell>
        <mxCell id="Kyq0_2vOsfh6rxv-Myn7-11" value="monitorar hábito" style="ellipse;whiteSpace=wrap;html=1;" vertex="1" parent="1">
          <mxGeometry x="290" y="330" width="70" height="30" as="geometry" />
        </mxCell>
        <mxCell id="Kyq0_2vOsfh6rxv-Myn7-12" value="visualizar total" style="ellipse;whiteSpace=wrap;html=1;" vertex="1" parent="1">
          <mxGeometry x="285.34" y="440" width="70" height="30" as="geometry" />
        </mxCell>
        <mxCell id="Kyq0_2vOsfh6rxv-Myn7-13" value="visualizar maior sequencia" style="ellipse;whiteSpace=wrap;html=1;" vertex="1" parent="1">
          <mxGeometry x="275.34" y="480" width="90" height="40" as="geometry" />
        </mxCell>
        <mxCell id="Kyq0_2vOsfh6rxv-Myn7-14" value="Visualizar sequencia" style="ellipse;whiteSpace=wrap;html=1;" vertex="1" parent="1">
          <mxGeometry x="480" y="370" width="70" height="30" as="geometry" />
        </mxCell>
        <mxCell id="Kyq0_2vOsfh6rxv-Myn7-15" value="compartilhar insta" style="ellipse;whiteSpace=wrap;html=1;" vertex="1" parent="1">
          <mxGeometry x="285.34" y="530" width="70" height="30" as="geometry" />
        </mxCell>
        <mxCell id="Kyq0_2vOsfh6rxv-Myn7-16" value="notificação de lembrete" style="ellipse;whiteSpace=wrap;html=1;" vertex="1" parent="1">
          <mxGeometry x="567.91" y="240" width="82.09" height="30" as="geometry" />
        </mxCell>
        <mxCell id="Kyq0_2vOsfh6rxv-Myn7-17" value="informações sobre hábitos" style="ellipse;whiteSpace=wrap;html=1;" vertex="1" parent="1">
          <mxGeometry x="260.34" y="570" width="120" height="40" as="geometry" />
        </mxCell>
        <mxCell id="Kyq0_2vOsfh6rxv-Myn7-20" style="rounded=0;orthogonalLoop=1;jettySize=auto;html=1;exitX=0;exitY=0.333;exitDx=0;exitDy=0;entryX=1;entryY=0.5;entryDx=0;entryDy=0;dashed=1;exitPerimeter=0;" edge="1" parent="1" source="Kyq0_2vOsfh6rxv-Myn7-4" target="Kyq0_2vOsfh6rxv-Myn7-2">
          <mxGeometry relative="1" as="geometry">
            <mxPoint x="450.00000000000034" y="40" as="sourcePoint" />
            <mxPoint x="359.99999999999966" y="20" as="targetPoint" />
          </mxGeometry>
        </mxCell>
        <mxCell id="Kyq0_2vOsfh6rxv-Myn7-22" value="&lt;font style=&quot;font-size: 8px;&quot;&gt;&amp;lt;&amp;lt;extensão&amp;gt;&amp;gt;&lt;/font&gt;" style="edgeLabel;html=1;align=center;verticalAlign=middle;resizable=0;points=[];" vertex="1" connectable="0" parent="Kyq0_2vOsfh6rxv-Myn7-20">
          <mxGeometry x="0.0452" relative="1" as="geometry">
            <mxPoint y="25" as="offset" />
          </mxGeometry>
        </mxCell>
        <mxCell id="Kyq0_2vOsfh6rxv-Myn7-23" value="&lt;font style=&quot;font-size: 8px;&quot;&gt;&amp;lt;&amp;lt;extensão&amp;gt;&amp;gt;&lt;/font&gt;" style="edgeLabel;html=1;align=center;verticalAlign=middle;resizable=0;points=[];" vertex="1" connectable="0" parent="1">
          <mxGeometry x="410" y="70" as="geometry" />
        </mxCell>
        <mxCell id="Kyq0_2vOsfh6rxv-Myn7-29" style="rounded=0;orthogonalLoop=1;jettySize=auto;html=1;exitX=0;exitY=0.5;exitDx=0;exitDy=0;entryX=1;entryY=0.5;entryDx=0;entryDy=0;dashed=1;" edge="1" parent="1" source="Kyq0_2vOsfh6rxv-Myn7-7" target="Kyq0_2vOsfh6rxv-Myn7-5">
          <mxGeometry relative="1" as="geometry">
            <mxPoint x="360" y="190.01" as="targetPoint" />
          </mxGeometry>
        </mxCell>
        <mxCell id="Kyq0_2vOsfh6rxv-Myn7-30" value="&lt;font style=&quot;font-size: 8px;&quot;&gt;&amp;lt;&amp;lt;extensão&amp;gt;&amp;gt;&lt;/font&gt;" style="edgeLabel;html=1;align=center;verticalAlign=middle;resizable=0;points=[];" vertex="1" connectable="0" parent="Kyq0_2vOsfh6rxv-Myn7-29">
          <mxGeometry x="-0.0479" relative="1" as="geometry">
            <mxPoint as="offset" />
          </mxGeometry>
        </mxCell>
        <mxCell id="Kyq0_2vOsfh6rxv-Myn7-39" style="rounded=0;orthogonalLoop=1;jettySize=auto;html=1;exitX=1;exitY=0.3333333333333333;exitDx=0;exitDy=0;exitPerimeter=0;entryX=0.051;entryY=0.424;entryDx=0;entryDy=0;entryPerimeter=0;endArrow=none;startFill=0;" edge="1" parent="1" source="Kyq0_2vOsfh6rxv-Myn7-1" target="Kyq0_2vOsfh6rxv-Myn7-10">
          <mxGeometry relative="1" as="geometry" />
        </mxCell>
        <mxCell id="Kyq0_2vOsfh6rxv-Myn7-46" style="rounded=0;orthogonalLoop=1;jettySize=auto;html=1;exitX=1;exitY=0.3333333333333333;exitDx=0;exitDy=0;exitPerimeter=0;entryX=0.02;entryY=0.409;entryDx=0;entryDy=0;entryPerimeter=0;endArrow=none;startFill=0;" edge="1" parent="1" source="Kyq0_2vOsfh6rxv-Myn7-1" target="Kyq0_2vOsfh6rxv-Myn7-17">
          <mxGeometry relative="1" as="geometry" />
        </mxCell>
        <mxCell id="Kyq0_2vOsfh6rxv-Myn7-50" value="Crie Hábitos" style="text;strokeColor=none;align=center;fillColor=none;html=1;verticalAlign=middle;whiteSpace=wrap;rounded=0;" vertex="1" parent="1">
          <mxGeometry x="190" y="10" width="90" height="30" as="geometry" />
        </mxCell>
      </root>
    </mxGraphModel>
  </diagram>
</mxfile>
